<svg width="82" height="19" viewBox="0 0 82 19" fill="none" xmlns="http://www.w3.org/2000/svg">
<path fill-rule="evenodd" clip-rule="evenodd" d="M1.57494 12.7752C1.5613 12.7968 1.5486 12.8187 1.53684 12.8409C1.53684 12.8409 0.328766 14.9396 0.0612853 16.1315C-0.313823 17.8029 1.10019 19 2.4713 19H21.5287C22.8998 19 24.3138 17.8029 23.9387 16.1315C23.6712 14.9396 22.4632 12.8409 22.4632 12.8409C22.4514 12.8187 22.4387 12.7968 22.4251 12.7752L15.6048 2.00055C13.9164 -0.666852 10.0836 -0.666848 8.39516 2.00055L1.57494 12.7752ZM14.0027 3.05066C13.0647 1.56877 10.9353 1.56877 9.99731 3.05066L6.60705 8.40664C6.47863 8.60951 6.69266 8.86727 6.91442 8.78175C8.47364 8.18046 10.2009 7.84936 12 7.84936C13.7991 7.84936 15.5264 8.18046 17.0856 8.78175C17.3073 8.86727 17.5214 8.60951 17.3929 8.40664L14.0027 3.05066ZM2.93585 14.2011C2.79905 14.4094 3.0391 14.6376 3.25217 14.5121C5.59191 13.1346 8.68181 12.3309 12 12.3309C15.3182 12.3309 18.4081 13.1346 20.7478 14.5121C20.9609 14.6376 21.201 14.4094 21.0641 14.2011C19.3756 11.6307 16.0186 9.78861 12 9.78861C7.98144 9.78861 4.62438 11.6307 2.93585 14.2011ZM20.3707 17.0608C20.5948 17.0608 20.6896 16.7818 20.5056 16.6515C18.4957 15.2279 15.4724 14.2701 12 14.2701C8.52756 14.2701 5.50431 15.2279 3.49438 16.6515C3.31043 16.7818 3.40522 17.0608 3.62933 17.0608H20.3707Z" fill="white"/>
<path d="M37.8675 5C36.1355 5 34.2268 5.44595 32.9543 6.13345L33.7673 8.02872C34.9337 7.3598 35.9941 7.17399 37.3196 7.17399C39.6524 7.17399 40.8365 7.99155 40.8365 9.88682V10.5557C40.0943 9.68243 38.6627 8.95777 36.7894 8.95777C34.704 8.95777 32 9.8125 32 12.4696C32 15.1267 34.704 16 36.7894 16C38.6627 16 40.0943 15.2568 40.8365 14.402V14.4206C40.8365 14.7922 40.9779 15.2568 41.19 15.6284H44C43.6819 15.0338 43.5582 14.4206 43.5582 13.6774V9.90541C43.5582 6.72804 41.4197 5 37.8675 5ZM40.8895 12.5997C40.1649 13.8074 38.7158 14.1233 37.461 14.1233C36.3299 14.1233 34.6686 13.826 34.6686 12.4696C34.6686 11.1132 36.3299 10.8345 37.461 10.8345C38.7158 10.8345 40.1649 11.1318 40.8895 12.3395V12.5997Z" fill="white"/>
<path d="M75.5 16C79.5071 16 82 13.8889 82 10.5C82 7.09259 79.5071 5 75.5 5C71.4744 5 69 7.09259 69 10.5C69 13.8889 71.4744 16 75.5 16ZM75.5 13.6667C73.358 13.6667 71.7699 12.6111 71.7699 10.5C71.7699 8.37037 73.358 7.33333 75.5 7.33333C77.6605 7.33333 79.2486 8.37037 79.2486 10.5C79.2486 12.6111 77.6605 13.6667 75.5 13.6667Z" fill="white"/>
<path d="M67 5.35398H64.3121V6.9469C63.4277 5.69027 61.9191 5 60.1156 5C56.9942 5 55 6.9646 55 10.0973C55 13.2301 56.9942 15.177 60.1156 15.177C61.815 15.177 63.4277 14.4867 64.3121 13.2478V14.0796C64.3121 15.9204 63.0636 16.823 60.6879 16.823C59.0231 16.823 57.6358 16.3982 56.7514 15.8142L55.9538 17.8142C57.0983 18.5398 59.2486 19 60.9827 19C63.9306 19 67 17.6195 67 13.6195V5.35398ZM60.8613 13.0531C58.763 13.0531 57.6012 11.9381 57.6012 10.0973C57.6012 8.23894 58.763 7.14159 60.8613 7.14159C62.2832 7.14159 63.4277 7.65487 64.3295 8.9469V11.2478C63.4277 12.5044 62.2832 13.0531 60.8613 13.0531Z" fill="white"/>
<path d="M49.0923 15V9.92007C49.7506 8.19716 51.606 7.36235 54 7.36235V5C51.8853 5 49.99 5.76377 49.0923 7.23801V5.21314H46V15H49.0923Z" fill="white"/>
</svg>
